<svg xmlns="http://www.w3.org/2000/svg" width="17" height="15.764" viewBox="0 0 17 15.764"><defs><style>.a{fill:#e1e1e1;}.b,.c{stroke:none;}.c{fill:#707070;}</style></defs><g class="a" transform="translate(1350 890)"><path class="b" d="M -1341.49951171875 -874.9571533203125 L -1347.52587890625 -881.211669921875 L -1347.478393554688 -881.2612915039063 L -1347.891845703125 -881.603759765625 C -1348.913818359375 -882.450439453125 -1349.5 -883.7136840820313 -1349.5 -885.0694580078125 C -1349.5 -887.5125122070313 -1347.585327148438 -889.5001220703125 -1345.231811523438 -889.5001220703125 C -1343.938232421875 -889.5001220703125 -1342.728637695313 -888.90087890625 -1341.913208007813 -887.8560791015625 L -1341.558837890625 -887.4019775390625 L -1341.49853515625 -887.4645385742188 L -1341.439697265625 -887.4037475585938 L -1341.086181640625 -887.8565063476563 C -1340.270751953125 -888.9010620117188 -1339.061401367188 -889.5001220703125 -1337.768188476563 -889.5001220703125 C -1335.414672851563 -889.5001220703125 -1333.499877929688 -887.5125122070313 -1333.499877929688 -885.0694580078125 C -1333.499877929688 -883.714111328125 -1334.0859375 -882.4509887695313 -1335.107788085938 -881.6040649414063 L -1335.521728515625 -881.2610473632813 L -1335.473876953125 -881.2111206054688 L -1341.49951171875 -874.9571533203125 Z"/><path class="c" d="M -1341.49951171875 -875.6777954101563 L -1336.167358398438 -881.2119140625 L -1336.254638671875 -881.3029174804688 L -1335.426879882813 -881.989013671875 C -1334.52001953125 -882.7406616210938 -1333.999877929688 -883.8634643554688 -1333.999877929688 -885.0694580078125 C -1333.999877929688 -887.23681640625 -1335.690307617188 -889.0001220703125 -1337.768188476563 -889.0001220703125 C -1338.906372070313 -889.0001220703125 -1339.972045898438 -888.4711303710938 -1340.692138671875 -887.548828125 L -1341.399047851563 -886.643310546875 L -1341.49755859375 -886.7450561523438 L -1341.598510742188 -886.6403198242188 L -1342.307373046875 -887.5484008789063 C -1343.027465820313 -888.4710083007813 -1344.093383789063 -889.0001220703125 -1345.231811523438 -889.0001220703125 C -1347.3095703125 -889.0001220703125 -1349 -887.23681640625 -1349 -885.0694580078125 C -1349 -883.863037109375 -1348.479858398438 -882.7401733398438 -1347.572875976563 -881.9888305664063 L -1346.745971679688 -881.3038330078125 L -1346.832763671875 -881.2130126953125 L -1341.49951171875 -875.6777954101563 M -1341.49951171875 -874.236572265625 L -1348.218872070313 -881.2103271484375 L -1348.210815429688 -881.21875 C -1349.301635742188 -882.1224365234375 -1350 -883.5115966796875 -1350 -885.0694580078125 C -1350 -887.7928466796875 -1347.865234375 -890.0001220703125 -1345.231811523438 -890.0001220703125 C -1343.7314453125 -890.0001220703125 -1342.393188476563 -889.28369140625 -1341.51904296875 -888.1636962890625 L -1341.49951171875 -888.1839599609375 L -1341.480346679688 -888.1641845703125 C -1340.606201171875 -889.283935546875 -1339.268188476563 -890.0001220703125 -1337.768188476563 -890.0001220703125 C -1335.134765625 -890.0001220703125 -1332.999877929688 -887.7928466796875 -1332.999877929688 -885.0694580078125 C -1332.999877929688 -883.511962890625 -1333.6982421875 -882.1229248046875 -1334.788696289063 -881.2191162109375 L -1334.7802734375 -881.2103271484375 L -1341.49951171875 -874.236572265625 Z"/></g></svg>