<svg xmlns="http://www.w3.org/2000/svg" width="14.828" height="14.837" viewBox="0 0 14.828 14.837"><defs><style>.a{fill:#505050;}</style></defs><g transform="translate(0.825)"><path class="a" d="M42.257,12.615,36.439,6.8,29.642,0h-.531L29,.276a4.873,4.873,0,0,0-.354,2.152A3.039,3.039,0,0,0,29.5,4.368l5.306,5.306.7-.7,4.906,5.485a1.3,1.3,0,0,0,1.845-1.845Z" transform="translate(-28.636)"/></g><g transform="translate(0 8.446)"><path class="a" d="M4.69,291.442.534,295.6a1.3,1.3,0,0,0,1.845,1.845l4.156-4.156Z" transform="translate(-0.153 -291.442)"/></g><g transform="translate(7.946 0.01)"><path class="a" d="M280.611,2.821l-2.357,2.357-.615-.615L280,2.206l-.615-.615-2.358,2.357-.615-.615L278.766.976l-.615-.615-3.075,3.075a2.17,2.17,0,0,0-.633,1.406,1.254,1.254,0,0,1-.089.393l2,2a1.251,1.251,0,0,1,.393-.089,2.17,2.17,0,0,0,1.406-.633l3.075-3.075Z" transform="translate(-274.354 -0.361)"/></g></svg>