<svg xmlns="http://www.w3.org/2000/svg" width="18.417" height="16.883" viewBox="0 0 18.417 16.883"><defs><style>.a{fill:#505050;}</style></defs><path class="a" d="M18.417,3.069V2.3a2.3,2.3,0,0,0-4.6,0V4.6H9.976V2.3a.767.767,0,0,1,1.535,0v.767h1.535V2.3a2.3,2.3,0,0,0-4.6,0V10.84a5.464,5.464,0,0,0-1.074-.1,4.865,4.865,0,0,0-2.137.443,3.372,3.372,0,0,1-1.547.325,3.373,3.373,0,0,1-1.547-.325A4.863,4.863,0,0,0,0,10.743v1.535a3.372,3.372,0,0,1,1.547.325,4.865,4.865,0,0,0,2.137.443A4.864,4.864,0,0,0,5.82,12.6a3.372,3.372,0,0,1,1.547-.325,3.371,3.371,0,0,1,1.546.325,4.863,4.863,0,0,0,2.136.443,4.863,4.863,0,0,0,2.137-.443,3.372,3.372,0,0,1,1.547-.325,3.371,3.371,0,0,1,1.546.325,4.863,4.863,0,0,0,2.137.443V11.51a3.373,3.373,0,0,1-1.546-.325,4.83,4.83,0,0,0-1.523-.414V2.3a.767.767,0,0,1,1.535,0v.767Zm-4.6,3.069V7.674H9.976V6.139ZM12.6,11.186a3.371,3.371,0,0,1-1.547.325,3.392,3.392,0,0,1-1.074-.144V9.208h3.837v1.6a5.031,5.031,0,0,0-1.216.373Z"/><path class="a" d="M14.733,151.989a4.864,4.864,0,0,0-2.137.443,3.371,3.371,0,0,1-1.547.325,3.371,3.371,0,0,1-1.546-.325,4.863,4.863,0,0,0-2.136-.443,4.865,4.865,0,0,0-2.137.443,3.371,3.371,0,0,1-1.547.325,3.373,3.373,0,0,1-1.547-.325A4.863,4.863,0,0,0,0,151.989v1.535a3.373,3.373,0,0,1,1.547.325,4.865,4.865,0,0,0,2.137.443,4.864,4.864,0,0,0,2.137-.443,3.372,3.372,0,0,1,1.547-.325,3.372,3.372,0,0,1,1.546.325,4.864,4.864,0,0,0,2.136.443,4.863,4.863,0,0,0,2.137-.443,3.373,3.373,0,0,1,1.547-.325,3.372,3.372,0,0,1,1.546.325,4.863,4.863,0,0,0,2.137.443v-1.535a3.373,3.373,0,0,1-1.546-.325A4.86,4.86,0,0,0,14.733,151.989Z" transform="translate(0 -137.409)"/></svg>