<svg xmlns="http://www.w3.org/2000/svg" width="17.96" height="14.193" viewBox="0 0 17.96 14.193"><defs><style>.a{fill:#505050;}</style></defs><g transform="translate(7.487 11.206)"><path class="a" d="M215.977,373.6a1.494,1.494,0,1,0,0,2.113A1.5,1.5,0,0,0,215.977,373.6Z" transform="translate(-213.427 -373.159)"/></g><g transform="translate(5.282 7.473)"><g transform="translate(0 0)"><path class="a" d="M150.588,268.258l1.056,1.057a3.739,3.739,0,0,1,5.282,0l1.056-1.057A5.235,5.235,0,0,0,150.588,268.258Z" transform="translate(-150.588 -266.729)"/></g></g><g transform="translate(2.641 3.735)"><g transform="translate(0 0)"><path class="a" d="M81.633,160.176a8.906,8.906,0,0,0-6.339,2.626l1.056,1.056a7.47,7.47,0,0,1,10.565,0l1.056-1.056A8.906,8.906,0,0,0,81.633,160.176Z" transform="translate(-75.294 -160.176)"/></g></g><g transform="translate(0 0)"><path class="a" d="M8.98,53.694A12.617,12.617,0,0,0,0,57.414L1.056,58.47a11.206,11.206,0,0,1,15.847,0l1.056-1.056A12.617,12.617,0,0,0,8.98,53.694Z" transform="translate(0 -53.694)"/></g></svg>